HIERARCHY
ROOT Root
{
  OFFSET 0.0 0.0 0.0
  CHANNELS 6 Xposition Yposition Zposition Zrotation Yrotation Xrotation
  JOINT Hips
  {
    OFFSET 0.0 100.0 0.0
    CHANNELS 6 Xposition Yposition Zposition Zrotation Yrotation Xrotation
    JOINT Spine1
    {
      OFFSET 5.003913 -0.037094 -0.013727
      CHANNELS 3 Zrotation Yrotation Xrotation
      JOINT Spine2
      {
        OFFSET 7.125363 -1e-06 0.0
        CHANNELS 3 Zrotation Yrotation Xrotation
        JOINT Chest
        {
          OFFSET 7.594027 1e-06 0.0
          CHANNELS 3 Zrotation Yrotation Xrotation
          JOINT Neck1
          {
            OFFSET 26.313086 -0.460272 -0.181672
            CHANNELS 3 Zrotation Yrotation Xrotation
            JOINT Neck2
            {
              OFFSET 8.045911 0.0 0.0
              CHANNELS 3 Zrotation Yrotation Xrotation
              JOINT Head
              {
                OFFSET 6.432774 0.0 0.0
                CHANNELS 3 Zrotation Yrotation Xrotation
                JOINT HeadEnd
                {
                  OFFSET 16.169773 0.06451 0.00362
                  CHANNELS 3 Zrotation Yrotation Xrotation
                }
                JOINT Jaw
                {
                  OFFSET 0.108741 3.12938 0.002639
                  CHANNELS 3 Zrotation Yrotation Xrotation
                }
                JOINT LeftEye
                {
                  OFFSET 4.45173 8.166359 3.206392
                  CHANNELS 3 Zrotation Yrotation Xrotation
                }
                JOINT RightEye
                {
                  OFFSET 4.436895 8.135758 -3.222429
                  CHANNELS 3 Zrotation Yrotation Xrotation
                }
              }
            }
          }
          JOINT LeftShoulder
          {
            OFFSET 23.218927 5.195579 1.621656
            CHANNELS 3 Zrotation Yrotation Xrotation
            JOINT LeftArm
            {
              OFFSET 15.902118 2e-06 -2e-06
              CHANNELS 3 Zrotation Yrotation Xrotation
              JOINT LeftForeArm
              {
                OFFSET 28.739307 0.0 -1e-06
                CHANNELS 3 Zrotation Yrotation Xrotation
                JOINT LeftHand
                {
                  OFFSET 27.093981 -4e-06 0.0
                  CHANNELS 3 Zrotation Yrotation Xrotation
                  JOINT LeftHandThumb1
                  {
                    OFFSET 2.276781 3.380274 0.83384
                    CHANNELS 3 Zrotation Yrotation Xrotation
                    JOINT LeftHandThumb2
                    {
                      OFFSET 4.705309 -1e-06 -1e-06
                      CHANNELS 3 Zrotation Yrotation Xrotation
                      JOINT LeftHandThumb3
                      {
                        OFFSET 2.798515 0.0 3e-06
                        CHANNELS 3 Zrotation Yrotation Xrotation
                        JOINT LeftHandThumbEnd
                        {
                          OFFSET 3.180793 4e-06 -4e-06
                          CHANNELS 3 Zrotation Yrotation Xrotation
                        }
                      }
                    }
                  }
                  JOINT LeftHandIndex1
                  {
                    OFFSET 3.247786 2.352677 0.137192
                    CHANNELS 3 Zrotation Yrotation Xrotation
                    JOINT LeftHandIndex2
                    {
                      OFFSET 6.367095 1e-06 0.0
                      CHANNELS 3 Zrotation Yrotation Xrotation
                      JOINT LeftHandIndex3
                      {
                        OFFSET 3.662364 0.0 0.0
                        CHANNELS 3 Zrotation Yrotation Xrotation
                        JOINT LeftHandIndex4
                        {
                          OFFSET 2.329242 4e-06 -4e-06
                          CHANNELS 3 Zrotation Yrotation Xrotation
                          JOINT LeftHandIndexEnd
                          {
                            OFFSET 2.767823 1e-06 0.0
                            CHANNELS 3 Zrotation Yrotation Xrotation
                          }
                        }
                      }
                    }
                  }
                  JOINT LeftHandMiddle1
                  {
                    OFFSET 3.163612 0.945023 -0.406112
                    CHANNELS 3 Zrotation Yrotation Xrotation
                    JOINT LeftHandMiddle2
                    {
                      OFFSET 6.276789 3e-06 0.0
                      CHANNELS 3 Zrotation Yrotation Xrotation
                      JOINT LeftHandMiddle3
                      {
                        OFFSET 4.35652 -1e-06 4e-06
                        CHANNELS 3 Zrotation Yrotation Xrotation
                        JOINT LeftHandMiddle4
                        {
                          OFFSET 2.996877 0.0 8e-06
                          CHANNELS 3 Zrotation Yrotation Xrotation
                          JOINT LeftHandMiddleEnd
                          {
                            OFFSET 2.323256 3e-06 -4e-06
                            CHANNELS 3 Zrotation Yrotation Xrotation
                          }
                        }
                      }
                    }
                  }
                  JOINT LeftHandRing1
                  {
                    OFFSET 2.882606 -0.309162 0.107445
                    CHANNELS 3 Zrotation Yrotation Xrotation
                    JOINT LeftHandRing2
                    {
                      OFFSET 6.033198 0.0 4e-06
                      CHANNELS 3 Zrotation Yrotation Xrotation
                      JOINT LeftHandRing3
                      {
                        OFFSET 4.350578 3e-06 0.0
                        CHANNELS 3 Zrotation Yrotation Xrotation
                        JOINT LeftHandRing4
                        {
                          OFFSET 2.651321 2e-06 -7e-06
                          CHANNELS 3 Zrotation Yrotation Xrotation
                          JOINT LeftHandRingEnd
                          {
                            OFFSET 1.937663 1e-06 -4e-06
                            CHANNELS 3 Zrotation Yrotation Xrotation
                          }
                        }
                      }
                    }
                  }
                  JOINT LeftHandPinky1
                  {
                    OFFSET 2.865315 -1.525436 0.575687
                    CHANNELS 3 Zrotation Yrotation Xrotation
                    JOINT LeftHandPinky2
                    {
                      OFFSET 5.54936 1e-06 -8e-06
                      CHANNELS 3 Zrotation Yrotation Xrotation
                      JOINT LeftHandPinky3
                      {
                        OFFSET 3.070974 0.0 -4e-06
                        CHANNELS 3 Zrotation Yrotation Xrotation
                        JOINT LeftHandPinky4
                        {
                          OFFSET 1.549672 1e-06 0.0
                          CHANNELS 3 Zrotation Yrotation Xrotation
                          JOINT LeftHandPinkyEnd
                          {
                            OFFSET 1.952123 0.0 0.0
                            CHANNELS 3 Zrotation Yrotation Xrotation
                          }
                        }
                      }
                    }
                  }
                }
              }
            }
          }
          JOINT RightShoulder
          {
            OFFSET 23.161716 5.296122 -1.380114
            CHANNELS 3 Zrotation Yrotation Xrotation
            JOINT RightArm
            {
              OFFSET -16.027195 -2e-06 1.1e-05
              CHANNELS 3 Zrotation Yrotation Xrotation
              JOINT RightForeArm
              {
                OFFSET -28.736639 4e-06 2e-06
                CHANNELS 3 Zrotation Yrotation Xrotation
                JOINT RightHand
                {
                  OFFSET -27.133619 6e-06 0.0
                  CHANNELS 3 Zrotation Yrotation Xrotation
                  JOINT RightHandThumb1
                  {
                    OFFSET -2.274328 -3.351035 -0.83067
                    CHANNELS 3 Zrotation Yrotation Xrotation
                    JOINT RightHandThumb2
                    {
                      OFFSET -4.703594 -3e-06 2e-06
                      CHANNELS 3 Zrotation Yrotation Xrotation
                      JOINT RightHandThumb3
                      {
                        OFFSET -2.794935 -4e-06 -3e-06
                        CHANNELS 3 Zrotation Yrotation Xrotation
                        JOINT RightHandThumbEnd
                        {
                          OFFSET -3.183852 4e-06 1e-06
                          CHANNELS 3 Zrotation Yrotation Xrotation
                        }
                      }
                    }
                  }
                  JOINT RightHandIndex1
                  {
                    OFFSET -3.253496 -2.33755 -0.127667
                    CHANNELS 3 Zrotation Yrotation Xrotation
                    JOINT RightHandIndex2
                    {
                      OFFSET -6.344434 0.0 0.0
                      CHANNELS 3 Zrotation Yrotation Xrotation
                      JOINT RightHandIndex3
                      {
                        OFFSET -3.654871 0.0 -8e-06
                        CHANNELS 3 Zrotation Yrotation Xrotation
                        JOINT RightHandIndex4
                        {
                          OFFSET -2.327586 -1e-06 0.0
                          CHANNELS 3 Zrotation Yrotation Xrotation
                          JOINT RightHandIndexEnd
                          {
                            OFFSET -2.770001 3e-06 8e-06
                            CHANNELS 3 Zrotation Yrotation Xrotation
                          }
                        }
                      }
                    }
                  }
                  JOINT RightHandMiddle1
                  {
                    OFFSET -3.168223 -0.944764 0.411762
                    CHANNELS 3 Zrotation Yrotation Xrotation
                    JOINT RightHandMiddle2
                    {
                      OFFSET -6.266691 -1e-06 -4e-06
                      CHANNELS 3 Zrotation Yrotation Xrotation
                      JOINT RightHandMiddle3
                      {
                        OFFSET -4.348901 0.0 0.0
                        CHANNELS 3 Zrotation Yrotation Xrotation
                        JOINT RightHandMiddle4
                        {
                          OFFSET -3.00024 2e-06 -4e-06
                          CHANNELS 3 Zrotation Yrotation Xrotation
                          JOINT RightHandMiddleEnd
                          {
                            OFFSET -2.321477 -4e-06 -4e-06
                            CHANNELS 3 Zrotation Yrotation Xrotation
                          }
                        }
                      }
                    }
                  }
                  JOINT RightHandRing1
                  {
                    OFFSET -2.885654 0.293261 -0.119232
                    CHANNELS 3 Zrotation Yrotation Xrotation
                    JOINT RightHandRing2
                    {
                      OFFSET -6.032835 -1e-06 -4e-06
                      CHANNELS 3 Zrotation Yrotation Xrotation
                      JOINT RightHandRing3
                      {
                        OFFSET -4.33881 0.0 -4e-06
                        CHANNELS 3 Zrotation Yrotation Xrotation
                        JOINT RightHandRing4
                        {
                          OFFSET -2.654903 -4e-06 -4e-06
                          CHANNELS 3 Zrotation Yrotation Xrotation
                          JOINT RightHandRingEnd
                          {
                            OFFSET -1.935122 0.0 4e-06
                            CHANNELS 3 Zrotation Yrotation Xrotation
                          }
                        }
                      }
                    }
                  }
                  JOINT RightHandPinky1
                  {
                    OFFSET -2.866241 1.503904 -0.60527
                    CHANNELS 3 Zrotation Yrotation Xrotation
                    JOINT RightHandPinky2
                    {
                      OFFSET -5.553177 -2e-06 0.0
                      CHANNELS 3 Zrotation Yrotation Xrotation
                      JOINT RightHandPinky3
                      {
                        OFFSET -3.062664 -1e-06 -4e-06
                        CHANNELS 3 Zrotation Yrotation Xrotation
                        JOINT RightHandPinky4
                        {
                          OFFSET -1.546529 2e-06 4e-06
                          CHANNELS 3 Zrotation Yrotation Xrotation
                          JOINT RightHandPinkyEnd
                          {
                            OFFSET -1.952341 0.0 -4e-06
                            CHANNELS 3 Zrotation Yrotation Xrotation
                          }
                        }
                      }
                    }
                  }
                }
              }
            }
          }
        }
      }
    }
    JOINT LeftLeg
    {
      OFFSET -8.443107 2.567604 10.043214
      CHANNELS 3 Zrotation Yrotation Xrotation
      JOINT LeftShin
      {
        OFFSET 43.229198 1e-06 -1e-06
        CHANNELS 3 Zrotation Yrotation Xrotation
        JOINT LeftFoot
        {
          OFFSET 42.298611 1e-06 1e-06
          CHANNELS 3 Zrotation Yrotation Xrotation
          JOINT LeftToeBase
          {
            OFFSET 14.165858 1e-06 0.0
            CHANNELS 3 Zrotation Yrotation Xrotation
            JOINT LeftToeEnd
            {
              OFFSET 6.7141 -0.234461 0.0
              CHANNELS 3 Zrotation Yrotation Xrotation
            }
          }
        }
      }
    }
    JOINT RightLeg
    {
      OFFSET -8.303923 2.592729 -10.047278
      CHANNELS 3 Zrotation Yrotation Xrotation
      JOINT RightShin
      {
        OFFSET -43.369682 0.0 1e-06
        CHANNELS 3 Zrotation Yrotation Xrotation
        JOINT RightFoot
        {
          OFFSET -42.260784 4e-06 2e-06
          CHANNELS 3 Zrotation Yrotation Xrotation
          JOINT RightToeBase
          {
            OFFSET -14.222245 -2e-06 -1e-06
            CHANNELS 3 Zrotation Yrotation Xrotation
            JOINT RightToeEnd
            {
              OFFSET -6.660062 0.232574 -2e-06
              CHANNELS 3 Zrotation Yrotation Xrotation
            }
          }
        }
      }
    }
  }
}
MOTION
Frames: 4
Frame Time: 0.03333333333333333
0.0 0.0 0.0 0.0 -0.0 0.0 1.306417 49.39677 6.252323 90.273361 -47.579014 89.623039 21.169243 0.527356 1.05158 -3.703914 0.089727 0.250086 16.297699 0.493349 -2.503289 9.648168 1.447507 3.08309 -2.605502 0.059172 0.857767 -33.836407 1.323408 0.011166 5e-06 -0.0 -0.0 -0.211256 0.05249 0.00344 0.205141 0.055073 0.073029 0.192385 0.050318 -0.060898 43.415085 -75.980156 -39.703571 71.184509 -7.106822 -20.999352 12.931517 -0.576404 0.111315 23.075876 70.93441 29.416359 17.636621 -26.322729 52.411194 -19.466661 -14.395598 29.410393 -3e-06 -8.774821 -1e-06 16.285225 -17.788607 5.872356 -0.609776 -1.795654 -3.889328 -4.807088 -11.046809 -2.93785 4e-06 -20.976015 -1e-06 -5.019969 -25.033556 -4.031881 6e-06 1e-06 -1e-06 -10.634533 -5.68697 -3.565586 10.573274 -17.922951 -3.113903 3e-06 -13.821209 0.0 -0.501777 -31.181505 -4.027016 -11.379302 -59.185337 6.682373 -13.982712 -7.150199 -2.87504 13.772729 -8.401489 -3.218242 0.347734 -34.211544 0.771654 -0.963029 -17.73337 2.621019 -0.0 -0.0 0.0 -17.346415 -20.095217 -4.20178 21.757555 -1.638374 3.866426 1e-06 -6.338822 1e-06 -1.697589 -22.591742 -6.194006 -0.0 -6e-06 -2e-06 -160.986771 -79.489418 -17.852282 80.665146 -13.689412 -29.547836 10.736553 -0.668618 0.042115 18.744364 60.862026 20.882174 22.182119 -20.3759 49.933334 -16.701817 -16.74353 28.476536 -4e-06 -12.690601 1e-06 16.508331 -18.041338 2.491655 -0.10592 -1.513856 -4.275882 -5.039042 -5.612872 -2.953555 5e-06 -11.020524 -3e-06 -6.111297 -15.895338 -3.840471 1e-06 0.0 -0.0 -10.283371 -5.680287 -4.34184 11.028296 -11.302406 -2.372633 -1.384268 -14.238582 -6.320122 -0.625437 -26.924191 -3.8276 -4.686851 -49.468018 -3.67074 -13.708526 -7.363475 -3.72094 18.141151 -14.052739 -3.242676 7e-06 -18.78727 -2e-06 -0.429712 -8.456044 2.555505 0.0 -0.0 -1e-06 -15.923536 -20.094482 -5.473587 30.419214 -7.190826 1.735924 1e-06 -8.162927 1e-06 -1.861901 -22.861473 -6.167943 -0.0 -4e-06 -1e-06 132.19017 -6.238196 -0.556536 105.164413 -0.053621 0.39785 -47.0425 15.8831 -16.832127 -5.392726 1.239794 2.892243 -0.999999 -0.0 -1e-06 -40.286282 -4.495422 -0.496579 93.708199 -1.274649 0.13817 -31.651506 15.217546 -12.360404 -1.622652 0.325993 2.247168 -1.000001 0.0 -0.0 
0.0 0.0 0.0 0.0 -0.0 0.0 1.342299 49.388119 6.318942 90.025887 -47.667389 89.798302 21.137789 0.627678 1.066751 -3.757529 0.155756 0.320914 16.307365 0.509315 -2.401569 9.740553 1.214586 2.987834 -2.615419 0.079206 0.805626 -33.859119 1.453857 -0.065556 6e-06 0.0 -0.0 -0.212501 0.023265 0.019247 0.226256 0.019064 0.0979 0.218317 0.028103 -0.056966 44.012531 -76.065941 -40.297939 71.41143 -7.030856 -21.356833 12.749316 -0.526294 0.124143 24.742039 70.62014 31.130325 17.636637 -26.322741 52.411198 -19.466663 -14.395596 29.410389 -1e-06 -8.774822 -3e-06 16.309032 -17.842234 5.917727 -0.609777 -1.795653 -3.889328 -4.807088 -11.046813 -2.93785 5e-06 -20.976021 0.0 -5.01997 -25.03356 -4.031879 6e-06 1e-06 1e-06 -10.634535 -5.686968 -3.565588 10.573276 -17.922955 -3.1139 3e-06 -13.821213 2e-06 -0.501777 -31.181511 -4.027014 -11.252725 -59.387306 6.663353 -13.982716 -7.150198 -2.875042 13.772731 -8.401493 -3.218241 0.347735 -34.211555 0.771657 -0.963028 -17.73337 2.621022 -0.0 -0.0 0.0 -17.346418 -20.095221 -4.201783 21.757557 -1.638377 3.86643 1e-06 -6.338825 1e-06 -1.697588 -22.591745 -6.194006 -1e-06 -6e-06 -2e-06 -161.948547 -79.46167 -16.76115 80.781593 -13.579879 -29.56768 10.632019 -0.63656 0.048703 19.057686 60.916901 21.17613 22.182119 -20.375895 49.933319 -16.701807 -16.743528 28.476528 -1e-06 -12.690601 -0.0 16.465715 -17.998661 2.562979 -0.10592 -1.513858 -4.27588 -5.039041 -5.61287 -2.953557 4e-06 -11.020526 -2e-06 -6.1113 -15.895336 -3.840471 -0.0 0.0 -0.0 -10.283371 -5.680287 -4.341837 11.028295 -11.302407 -2.372633 -1.38427 -14.238583 -6.320121 -0.625441 -26.924191 -3.8276 -4.656579 -49.641098 -3.517688 -13.708526 -7.363479 -3.720938 18.141146 -14.052738 -3.242672 5e-06 -18.787271 -3e-06 -0.429712 -8.456047 2.555503 0.0 -0.0 0.0 -15.923536 -20.09449 -5.473582 30.41921 -7.190823 1.735927 2e-06 -8.162928 -0.0 -1.861902 -22.861469 -6.167944 -0.0 -3e-06 -0.0 132.149979 -6.388254 -0.527344 105.162231 -0.10095 0.414816 -47.174706 15.757339 -16.631933 -5.348604 1.260334 2.887626 -1.000001 -0.0 1e-06 -40.272621 -4.438693 -0.652663 93.574661 -1.260476 0.151419 -31.58691 15.140583 -12.442047 -1.626373 0.325946 2.259172 -1.000001 -0.0 0.0 
0.0 0.0 0.0 0.0 -0.0 0.0 1.363087 49.382782 6.371532 89.914673 -47.68372 89.875801 21.093176 0.69132 1.089395 -3.797679 0.198928 0.38188 16.344305 0.494909 -2.343356 9.889965 1.034878 2.906015 -2.635159 0.087147 0.750626 -33.978302 1.561244 -0.129968 6e-06 0.0 -0.0 -0.208614 -0.001239 0.034831 0.19985 -0.00871 0.108483 0.205297 0.006557 -0.040043 44.233219 -76.036163 -40.483967 71.585823 -6.981405 -21.447588 12.626682 -0.480363 0.134331 25.165316 70.491173 31.462593 17.636631 -26.322723 52.411179 -19.466658 -14.395596 29.410381 -2e-06 -8.774821 -2e-06 16.317383 -17.859816 5.947911 -0.609776 -1.795654 -3.889327 -4.807088 -11.046808 -2.93785 3e-06 -20.976011 -1e-06 -5.019969 -25.033546 -4.031882 6e-06 0.0 1e-06 -10.634533 -5.686972 -3.565587 10.573271 -17.922947 -3.113899 2e-06 -13.821208 1e-06 -0.501778 -31.181498 -4.027015 -11.137156 -59.515556 6.625509 -13.982712 -7.150198 -2.875042 13.772725 -8.401489 -3.218239 0.347733 -34.211536 0.771654 -0.963028 -17.733366 2.621019 0.0 -0.0 0.0 -17.346418 -20.095217 -4.20178 21.757555 -1.638372 3.866429 1e-06 -6.338823 1e-06 -1.697589 -22.591742 -6.194006 -1e-06 -3e-06 -2e-06 -162.09584 -79.438431 -16.465057 80.678452 -13.474522 -29.434061 10.594984 -0.643157 0.050325 19.400236 61.044804 21.617558 22.182117 -20.375904 49.933319 -16.701813 -16.74353 28.476532 -4e-06 -12.690601 -0.0 16.424322 -17.91857 2.634043 -0.105921 -1.51386 -4.275882 -5.039041 -5.612871 -2.953556 5e-06 -11.02052 -2e-06 -6.111297 -15.89533 -3.840471 -1e-06 2e-06 -0.0 -10.283371 -5.680291 -4.341838 11.028296 -11.302408 -2.372633 -1.38427 -14.238585 -6.32012 -0.625439 -26.924196 -3.827601 -4.602921 -49.70715 -3.394503 -13.708526 -7.363475 -3.72094 18.14115 -14.05274 -3.242672 6e-06 -18.787273 -1e-06 -0.429712 -8.456047 2.555505 -0.0 0.0 -0.0 -15.923536 -20.094484 -5.473582 30.41921 -7.190827 1.735924 1e-06 -8.162927 0.0 -1.861902 -22.861473 -6.167943 -0.0 -3e-06 -1e-06 132.202454 -6.463327 -0.533035 105.163826 -0.127985 0.432187 -47.440041 15.678019 -16.461681 -5.406628 1.279535 2.877726 -0.999997 -0.0 -1e-06 -40.209572 -4.447083 -0.739135 93.479729 -1.241842 0.181364 -31.554071 15.245269 -12.513217 -1.703221 0.303299 2.274276 -1.000001 -0.0 1e-06 
0.0 0.0 0.0 0.0 -0.0 0.0 1.369853 49.369076 6.366591 89.840042 -47.705383 89.948097 21.046358 0.739766 1.093972 -3.827086 0.224324 0.423761 16.356895 0.49192 -2.321337 10.001095 0.880036 2.83371 -2.644814 0.072566 0.704924 -34.167534 1.66818 -0.165223 6e-06 -0.0 -0.0 -0.206377 -0.023466 0.04988 0.159508 -0.033257 0.113537 0.17862 -0.014467 -0.017196 44.215641 -76.053352 -40.448601 71.75872 -6.962387 -21.455694 12.555828 -0.448928 0.136147 25.365664 70.539001 31.761097 17.636629 -26.322727 52.411186 -19.46666 -14.395596 29.410385 -0.0 -8.774821 -3e-06 16.276356 -17.853441 5.992361 -0.609776 -1.795654 -3.889327 -4.807088 -11.046813 -2.93785 5e-06 -20.976015 -0.0 -5.019969 -25.033556 -4.03188 6e-06 2e-06 0.0 -10.634533 -5.686971 -3.565587 10.573274 -17.922951 -3.1139 3e-06 -13.821211 1e-06 -0.501776 -31.181505 -4.027016 -11.088721 -59.597179 6.590395 -13.982713 -7.150198 -2.875041 13.772729 -8.401493 -3.218241 0.347735 -34.211555 0.771654 -0.963028 -17.73337 2.62102 0.0 1e-06 -0.0 -17.346416 -20.095213 -4.201779 21.757555 -1.638378 3.866426 1e-06 -6.338823 1e-06 -1.697589 -22.591742 -6.194005 -1e-06 -5e-06 -3e-06 -162.080307 -79.39962 -16.380968 80.538307 -13.429464 -29.170237 10.640478 -0.662489 0.048969 19.568319 61.207035 21.860312 22.182112 -20.375898 49.933327 -16.701817 -16.74353 28.476532 -5e-06 -12.6906 2e-06 16.419291 -17.854124 2.694899 -0.105919 -1.513857 -4.275883 -5.039042 -5.612871 -2.953556 4e-06 -11.020523 -2e-06 -6.111299 -15.895334 -3.840471 -0.0 1e-06 -0.0 -10.283371 -5.680291 -4.341838 11.028296 -11.302404 -2.372633 -1.384268 -14.238581 -6.320119 -0.625438 -26.924187 -3.827601 -4.580178 -49.771126 -3.27798 -13.708526 -7.363477 -3.720938 18.14115 -14.052738 -3.242675 7e-06 -18.787271 -3e-06 -0.429712 -8.456045 2.555503 -0.0 -1e-06 -1e-06 -15.923536 -20.09449 -5.473585 30.419214 -7.190825 1.735926 1e-06 -8.162927 -1e-06 -1.861902 -22.861473 -6.167941 0.0 -3e-06 -1e-06 132.175644 -6.485195 -0.488954 105.249931 -0.140972 0.451382 -47.764507 15.687454 -16.329205 -5.572874 1.289259 2.861905 -1.0 0.0 -0.0 -40.224979 -4.479215 -0.812378 93.487656 -1.213007 0.203746 -31.551813 15.382944 -12.624096 -1.75086 0.278531 2.287318 -1.000003 1e-06 1e-06 
